<?xml version="1.0" encoding="utf-8"?>
<!-- Generator: Adobe Illustrator 24.3.0, SVG Export Plug-In . SVG Version: 6.00 Build 0)  -->
<svg version="1.1" id="Layer_1" xmlns="http://www.w3.org/2000/svg" xmlns:xlink="http://www.w3.org/1999/xlink" x="0px" y="0px"
	 viewBox="0 0 241 83.4" style="enable-background:new 0 0 241 83.4;" xml:space="preserve">
<style type="text/css">
	.st0{fill:#1D2D5B;}
	.st1{fill:#10AACE;}
	.st2{fill:#232C61;}
</style>
<g>
	<path class="st0" d="M4.9,5c2.3,0.6,4.8,1.1,6.8,2.4c-1.1,1.2-2,2.6-2.7,4C7.4,9.5,5.9,7.4,4.9,5z"/>
	<path class="st0" d="M13.4,9.1c8.2,1.6,16.3,3.6,24.1,6.3c3.7,1.3,7.2,3,10.6,5.1c3.7,2.5,6.8,6.5,6.4,11.2
		c-0.4,4.2-3.5,7.2-6.3,10c-1.7-1.3-3.5-2.4-5-3.8c2.2-1.5,4.5-3.3,5.2-5.9c0.5-2.7-1.7-4.9-3.6-6.4c-4.9-3.5-10.9-5.1-16.6-6.9
		c-0.6-0.2-1.1-0.4-1.7-0.5c-3.2-0.8-6.4-1.9-9.7-2c-1,7,3.2,13.2,7.7,18c5,5.5,11.2,10,17.8,13.5c0.5,0.3,1.1,0.6,1.2,1.3
		c0.2,1.9,0.2,3.7,0.5,5.6c-9.6-4-18.4-10.1-25.3-17.9c-4.2-5.1-7.6-11.1-8-17.9C10.7,15.4,11.5,11.9,13.4,9.1z"/>
	<path class="st0" d="M29.4,50.3c2-0.1,3.5,1.7,5.3,2.4c-2,2.4-3.8,4.9-5.3,7.7c-2.6,0.9-5.4,1.1-7.9,2.5
		C22.8,58,25.8,53.8,29.4,50.3z"/>
</g>
<g>
	<path class="st1" d="M21.5,20.8c2.8,0.8,5.6,1.3,8.3,2.4c1.4,2.6,3,5.1,5.1,7.3c0.7,0.8,2,0.5,2.8,0.1c2-0.8,3.8-1.9,5.8-2.7
		c0.1,2.1,0.1,4.2,0.1,6.2c-3.1,1.3-5.9,3.2-8.9,4.6C29.2,33.7,24.2,27.8,21.5,20.8z"/>
	<path class="st1" d="M38.4,40.8c1.5-1.2,3.2-2.1,4.9-3c1.5,1.5,3.3,2.6,5,3.8c2.2,2.2,4.8,4.2,5.8,7.3c1.3,3.5,0.4,7.7-2.1,10.4
		c-4.5,5-11,7.2-17.1,9.5c-7.1,1.9-14,4.2-21.3,5.4c-2.5-3.4-3.4-7.9-2.9-12c1.2-6.6,5.2-12.4,9.7-17.2c0.5-0.6,1.5-1.4,2.3-0.8
		c1.2,1,2.3,2.2,3.6,3.1c-5.3,5.2-10.6,11.9-9.5,19.8c7-1.1,13.9-3.4,20.6-5.8c3.4-1.2,6.8-2.9,9.5-5.5c1.5-1.4,2.4-3.8,1.3-5.7
		c-2.4-3.7-6.5-5.7-9.7-8.5C38.3,41.5,38.3,41,38.4,40.8z"/>
	<path class="st1" d="M5.2,77.9c0.8-2.3,2.3-4.1,3.7-6c0.6,1.5,2.2,2.6,2.3,4.2C9.2,76.8,7.3,77.7,5.2,77.9z"/>
</g>
<path class="st0" d="M95.4,37.1c1.1,1.4,1.6,3.2,1.6,5.3c0,3-1.2,5.3-3.5,6.9c-2.3,1.6-5.7,2.4-10.1,2.4H66V17.7h16.6
	c4.1,0,7.3,0.8,9.5,2.4c2.2,1.6,3.3,3.7,3.3,6.4c0,1.6-0.4,3.1-1.2,4.4c-0.8,1.3-1.9,2.3-3.3,3.1C92.8,34.6,94.3,35.6,95.4,37.1z
	 M73.7,23.6v8h7.8c1.9,0,3.4-0.3,4.4-1c1-0.7,1.5-1.7,1.5-3c0-1.3-0.5-2.3-1.5-3c-1-0.7-2.5-1-4.4-1H73.7z M87.6,44.7
	c1-0.7,1.6-1.7,1.6-3.1c0-2.8-2.1-4.2-6.2-4.2h-9.2v8.4h9.2C85,45.7,86.5,45.4,87.6,44.7z"/>
<path class="st0" d="M128.7,25.6v26.1h-7.2v-3.1c-1,1.1-2.2,2-3.6,2.6c-1.4,0.6-2.9,0.9-4.5,0.9c-3.4,0-6.1-1-8.1-3
	c-2-2-3-4.9-3-8.8V25.6h7.6v13.6c0,4.2,1.8,6.3,5.3,6.3c1.8,0,3.3-0.6,4.4-1.8c1.1-1.2,1.6-2.9,1.6-5.3V25.6H128.7z"/>
<path class="st0" d="M161.6,25.6l-11.8,27.7c-1.2,3-2.7,5.1-4.4,6.3s-3.9,1.8-6.4,1.8c-1.4,0-2.7-0.2-4-0.6c-1.3-0.4-2.4-1-3.2-1.7
	l2.8-5.4c0.6,0.5,1.3,0.9,2,1.2c0.8,0.3,1.5,0.4,2.3,0.4c1,0,1.9-0.3,2.5-0.8c0.6-0.5,1.2-1.3,1.7-2.5l0.1-0.2l-11.3-26.2h7.8
	l7.3,17.7l7.4-17.7H161.6z"/>
<path class="st1" d="M185.7,45.8v5.8h-23.2v-4.6l13.3-15.7h-12.9v-5.8h22.5v4.6L172,45.8H185.7z"/>
<path class="st1" d="M190.9,20.7c-0.9-0.8-1.3-1.8-1.3-3c0-1.2,0.4-2.2,1.3-3c0.9-0.8,2-1.2,3.4-1.2s2.5,0.4,3.4,1.2
	c0.9,0.8,1.3,1.7,1.3,2.9c0,1.3-0.4,2.3-1.3,3.1c-0.9,0.8-2,1.2-3.4,1.2S191.8,21.5,190.9,20.7z M190.5,25.6h7.6v26.1h-7.6V25.6z"/>
<path class="st1" d="M228.7,28.1c2,1.9,3,4.8,3,8.6v14.9h-7.6V37.9c0-2.1-0.5-3.6-1.4-4.6c-0.9-1-2.2-1.5-3.9-1.5
	c-1.9,0-3.4,0.6-4.6,1.8c-1.1,1.2-1.7,2.9-1.7,5.3v12.9h-7.6V25.6h7.2v3.1c1-1.1,2.2-1.9,3.7-2.5c1.5-0.6,3.1-0.9,4.9-0.9
	C224.1,25.2,226.8,26.2,228.7,28.1z"/>
<g>
	<path class="st2" d="M71.4,69.2c-0.4-0.2-1-0.4-1.8-0.5c-0.6-0.1-1-0.3-1.4-0.4c-0.3-0.1-0.6-0.3-0.8-0.5s-0.3-0.5-0.3-0.8
		c0-0.5,0.2-0.8,0.6-1.1c0.4-0.3,1-0.4,1.8-0.4c0.4,0,0.9,0.1,1.4,0.2c0.5,0.1,0.9,0.3,1.3,0.6l0.5-1.1c-0.4-0.3-0.9-0.5-1.4-0.6
		s-1.1-0.2-1.7-0.2c-0.8,0-1.5,0.1-2.1,0.4s-1,0.6-1.3,1c-0.3,0.4-0.4,0.9-0.4,1.4c0,0.6,0.2,1.1,0.5,1.5c0.3,0.4,0.7,0.6,1.2,0.8
		c0.5,0.2,1,0.4,1.8,0.5c0.6,0.1,1,0.3,1.4,0.4c0.3,0.1,0.6,0.3,0.8,0.5s0.3,0.5,0.3,0.8c0,0.5-0.2,0.8-0.6,1.1
		c-0.4,0.3-1,0.4-1.8,0.4c-0.6,0-1.2-0.1-1.8-0.3S66.3,72.3,66,72l-0.5,1.1c0.4,0.4,0.9,0.7,1.6,0.9s1.4,0.3,2.1,0.3
		c0.8,0,1.5-0.1,2.1-0.4s1-0.6,1.3-1c0.3-0.4,0.4-0.9,0.4-1.4c0-0.6-0.2-1.1-0.5-1.5C72.2,69.7,71.8,69.4,71.4,69.2z"/>
	<path class="st2" d="M75.5,63.6c-0.3,0-0.5,0.1-0.7,0.3s-0.3,0.4-0.3,0.6c0,0.2,0.1,0.4,0.3,0.6s0.4,0.3,0.7,0.3s0.5-0.1,0.7-0.3
		c0.2-0.2,0.3-0.4,0.3-0.6c0-0.2-0.1-0.4-0.3-0.6C76,63.7,75.8,63.6,75.5,63.6z"/>
	<rect x="74.8" y="66.8" class="st2" width="1.3" height="7.4"/>
	<path class="st2" d="M88,66.7c-0.6,0-1.2,0.1-1.7,0.4c-0.5,0.2-0.9,0.6-1.2,1c-0.2-0.4-0.6-0.8-1-1c-0.4-0.2-1-0.4-1.5-0.4
		c-0.6,0-1.1,0.1-1.5,0.3c-0.4,0.2-0.8,0.5-1.1,0.9v-1.1h-1.3v7.4h1.3v-3.8c0-0.8,0.2-1.4,0.6-1.8c0.4-0.4,0.9-0.6,1.6-0.6
		c0.6,0,1.1,0.2,1.4,0.5c0.3,0.4,0.5,0.9,0.5,1.6v4.1h1.3v-3.8c0-0.8,0.2-1.4,0.6-1.8s0.9-0.6,1.6-0.6c0.6,0,1.1,0.2,1.4,0.5
		c0.3,0.4,0.5,0.9,0.5,1.6v4.1h1.3v-4.3c0-1.1-0.3-1.9-0.8-2.4S89,66.7,88,66.7z"/>
	<path class="st2" d="M99.4,67.2c-0.6-0.3-1.2-0.5-1.9-0.5c-0.6,0-1.1,0.1-1.5,0.3c-0.5,0.2-0.8,0.5-1.1,0.9v-1.2h-1.3v10.1h1.3
		v-3.8c0.3,0.4,0.7,0.7,1.1,0.9c0.4,0.2,0.9,0.3,1.5,0.3c0.7,0,1.4-0.2,1.9-0.5c0.6-0.3,1-0.8,1.3-1.3c0.3-0.6,0.5-1.2,0.5-2
		c0-0.7-0.2-1.4-0.5-2C100.4,67.9,100,67.5,99.4,67.2z M99.5,71.8c-0.2,0.4-0.5,0.7-0.9,0.9c-0.4,0.2-0.8,0.3-1.3,0.3
		c-0.5,0-0.9-0.1-1.3-0.3c-0.4-0.2-0.7-0.5-0.9-0.9c-0.2-0.4-0.3-0.9-0.3-1.4c0-0.5,0.1-1,0.3-1.4c0.2-0.4,0.5-0.7,0.9-0.9
		c0.4-0.2,0.8-0.3,1.3-0.3c0.5,0,0.9,0.1,1.3,0.3c0.4,0.2,0.7,0.5,0.9,0.9c0.2,0.4,0.3,0.9,0.3,1.4C99.9,71,99.8,71.4,99.5,71.8z"/>
	<rect x="103.1" y="63.8" class="st2" width="1.3" height="10.4"/>
	<path class="st2" d="M107.7,63.6c-0.3,0-0.5,0.1-0.7,0.3s-0.3,0.4-0.3,0.6c0,0.2,0.1,0.4,0.3,0.6s0.4,0.3,0.7,0.3s0.5-0.1,0.7-0.3
		c0.2-0.2,0.3-0.4,0.3-0.6c0-0.2-0.1-0.4-0.3-0.6C108.1,63.7,107.9,63.6,107.7,63.6z"/>
	<rect x="107" y="66.8" class="st2" width="1.3" height="7.4"/>
	<path class="st2" d="M114.6,66.8h-2.2v-0.6c0-0.9,0.4-1.3,1.2-1.3c0.4,0,0.7,0.1,1,0.4l0.4-1c-0.2-0.1-0.4-0.2-0.7-0.3
		c-0.3-0.1-0.5-0.1-0.8-0.1c-0.8,0-1.4,0.2-1.8,0.6c-0.4,0.4-0.6,1-0.6,1.8v0.7h-1.3v1.1h1.3v6.3h1.3v-6.3h2.1V66.8z"/>
	<path class="st2" d="M118.7,72.7l-2.6-5.9h-1.4l3.3,7.4l-0.2,0.5c-0.2,0.4-0.4,0.7-0.6,0.9c-0.2,0.2-0.5,0.3-0.8,0.3
		c-0.5,0-0.9-0.2-1.3-0.5l-0.6,1c0.2,0.2,0.5,0.4,0.8,0.5c0.3,0.1,0.7,0.2,1.1,0.2c0.6,0,1.1-0.2,1.5-0.5c0.4-0.3,0.8-0.8,1.1-1.6
		l3.6-8.2h-1.3L118.7,72.7z"/>
	<polygon class="st2" points="134,64.4 130.9,69.5 127.7,64.4 126.2,64.4 130.1,70.8 130.1,74.2 131.5,74.2 131.5,70.8 135.4,64.4 	
		"/>
	<path class="st2" d="M141,67.2c-0.6-0.3-1.2-0.5-2-0.5c-0.7,0-1.4,0.2-2,0.5s-1,0.8-1.4,1.3c-0.3,0.6-0.5,1.2-0.5,2
		c0,0.7,0.2,1.4,0.5,2c0.3,0.6,0.8,1,1.4,1.4c0.6,0.3,1.2,0.5,2,0.5c0.7,0,1.4-0.2,2-0.5c0.6-0.3,1-0.8,1.4-1.4s0.5-1.2,0.5-2
		c0-0.7-0.2-1.4-0.5-2C142,67.9,141.5,67.5,141,67.2z M141.1,71.8c-0.2,0.4-0.5,0.7-0.9,0.9c-0.4,0.2-0.8,0.3-1.3,0.3
		c-0.5,0-0.9-0.1-1.3-0.3c-0.4-0.2-0.7-0.5-0.9-0.9c-0.2-0.4-0.3-0.9-0.3-1.4c0-0.5,0.1-1,0.3-1.4c0.2-0.4,0.5-0.7,0.9-0.9
		c0.4-0.2,0.8-0.3,1.3-0.3c0.5,0,0.9,0.1,1.3,0.3c0.4,0.2,0.7,0.5,0.9,0.9c0.2,0.4,0.3,0.9,0.3,1.4C141.5,71,141.4,71.4,141.1,71.8z
		"/>
	<path class="st2" d="M150.3,70.6c0,0.8-0.2,1.4-0.6,1.8c-0.4,0.4-1,0.6-1.7,0.6c-0.6,0-1.1-0.2-1.5-0.6c-0.3-0.4-0.5-0.9-0.5-1.6
		v-4.1h-1.3V71c0,1.1,0.3,1.9,0.9,2.4s1.3,0.8,2.3,0.8c0.5,0,1-0.1,1.4-0.3s0.8-0.5,1.1-0.9v1.1h1.3v-7.4h-1.3V70.6z"/>
	<path class="st2" d="M155.4,68v-1.2h-1.3v7.4h1.3v-3.7c0-0.8,0.2-1.4,0.6-1.9s1-0.7,1.7-0.7c0.1,0,0.2,0,0.3,0v-1.3
		c-0.7,0-1.2,0.1-1.7,0.3C156,67.2,155.7,67.6,155.4,68z"/>
	<path class="st2" d="M168.9,69.2c-0.4-0.2-1-0.4-1.8-0.5c-0.6-0.1-1-0.3-1.4-0.4c-0.3-0.1-0.6-0.3-0.8-0.5
		c-0.2-0.2-0.3-0.5-0.3-0.8c0-0.5,0.2-0.8,0.6-1.1c0.4-0.3,1-0.4,1.8-0.4c0.4,0,0.9,0.1,1.4,0.2c0.5,0.1,0.9,0.3,1.3,0.6l0.5-1.1
		c-0.4-0.3-0.9-0.5-1.4-0.6c-0.6-0.1-1.1-0.2-1.7-0.2c-0.8,0-1.5,0.1-2.1,0.4c-0.6,0.3-1,0.6-1.3,1c-0.3,0.4-0.4,0.9-0.4,1.4
		c0,0.6,0.2,1.1,0.5,1.5c0.3,0.4,0.7,0.6,1.2,0.8c0.5,0.2,1,0.4,1.8,0.5c0.6,0.1,1,0.3,1.4,0.4s0.6,0.3,0.8,0.5
		c0.2,0.2,0.3,0.5,0.3,0.8c0,0.5-0.2,0.8-0.6,1.1c-0.4,0.3-1,0.4-1.8,0.4c-0.6,0-1.2-0.1-1.8-0.3c-0.6-0.2-1.1-0.5-1.4-0.8l-0.5,1.1
		c0.4,0.4,0.9,0.7,1.6,0.9c0.7,0.2,1.4,0.3,2.1,0.3c0.8,0,1.5-0.1,2.1-0.4s1-0.6,1.3-1s0.4-0.9,0.4-1.4c0-0.6-0.2-1.1-0.5-1.5
		C169.7,69.7,169.3,69.4,168.9,69.2z"/>
	<path class="st2" d="M176.3,66.7c-0.6,0-1.1,0.1-1.5,0.3c-0.5,0.2-0.8,0.5-1.1,0.8v-4h-1.3v10.4h1.3v-3.8c0-0.8,0.2-1.4,0.6-1.8
		s1-0.6,1.7-0.6c0.6,0,1.1,0.2,1.5,0.5c0.3,0.4,0.5,0.9,0.5,1.6v4.1h1.3v-4.3c0-1.1-0.3-1.9-0.8-2.4C178,67,177.3,66.7,176.3,66.7z"
		/>
	<path class="st2" d="M187.1,67.2c-0.6-0.3-1.2-0.5-2-0.5s-1.4,0.2-2,0.5s-1,0.8-1.4,1.3c-0.3,0.6-0.5,1.2-0.5,2
		c0,0.7,0.2,1.4,0.5,2s0.8,1,1.4,1.4c0.6,0.3,1.3,0.5,2,0.5s1.4-0.2,2-0.5c0.6-0.3,1-0.8,1.4-1.4s0.5-1.2,0.5-2c0-0.7-0.2-1.4-0.5-2
		C188.1,67.9,187.7,67.5,187.1,67.2z M187.3,71.8c-0.2,0.4-0.5,0.7-0.9,0.9c-0.4,0.2-0.8,0.3-1.3,0.3c-0.5,0-0.9-0.1-1.3-0.3
		c-0.4-0.2-0.7-0.5-0.9-0.9c-0.2-0.4-0.3-0.9-0.3-1.4c0-0.5,0.1-1,0.3-1.4c0.2-0.4,0.5-0.7,0.9-0.9c0.4-0.2,0.8-0.3,1.3-0.3
		c0.5,0,0.9,0.1,1.3,0.3c0.4,0.2,0.7,0.5,0.9,0.9c0.2,0.4,0.3,0.9,0.3,1.4C187.6,71,187.5,71.4,187.3,71.8z"/>
	<path class="st2" d="M196.7,67.2c-0.6-0.3-1.2-0.5-1.9-0.5c-0.6,0-1.1,0.1-1.5,0.3c-0.5,0.2-0.8,0.5-1.1,0.9v-1.2h-1.3v10.1h1.3
		v-3.8c0.3,0.4,0.7,0.7,1.1,0.9s0.9,0.3,1.5,0.3c0.7,0,1.4-0.2,1.9-0.5s1-0.8,1.3-1.3c0.3-0.6,0.5-1.2,0.5-2c0-0.7-0.2-1.4-0.5-2
		C197.7,67.9,197.3,67.5,196.7,67.2z M196.8,71.8c-0.2,0.4-0.5,0.7-0.9,0.9c-0.4,0.2-0.8,0.3-1.3,0.3c-0.5,0-0.9-0.1-1.3-0.3
		c-0.4-0.2-0.7-0.5-0.9-0.9s-0.3-0.9-0.3-1.4c0-0.5,0.1-1,0.3-1.4c0.2-0.4,0.5-0.7,0.9-0.9c0.4-0.2,0.8-0.3,1.3-0.3
		c0.5,0,0.9,0.1,1.3,0.3c0.4,0.2,0.7,0.5,0.9,0.9c0.2,0.4,0.3,0.9,0.3,1.4C197.2,71,197,71.4,196.8,71.8z"/>
	<path class="st2" d="M206.2,67.2c-0.6-0.3-1.2-0.5-1.9-0.5c-0.6,0-1.1,0.1-1.5,0.3c-0.5,0.2-0.8,0.5-1.1,0.9v-1.2h-1.3v10.1h1.3
		v-3.8c0.3,0.4,0.7,0.7,1.1,0.9s0.9,0.3,1.5,0.3c0.7,0,1.4-0.2,1.9-0.5s1-0.8,1.3-1.3c0.3-0.6,0.5-1.2,0.5-2c0-0.7-0.2-1.4-0.5-2
		C207.3,67.9,206.8,67.5,206.2,67.2z M206.4,71.8c-0.2,0.4-0.5,0.7-0.9,0.9c-0.4,0.2-0.8,0.3-1.3,0.3c-0.5,0-0.9-0.1-1.3-0.3
		c-0.4-0.2-0.7-0.5-0.9-0.9s-0.3-0.9-0.3-1.4c0-0.5,0.1-1,0.3-1.4c0.2-0.4,0.5-0.7,0.9-0.9c0.4-0.2,0.8-0.3,1.3-0.3
		c0.5,0,0.9,0.1,1.3,0.3c0.4,0.2,0.7,0.5,0.9,0.9c0.2,0.4,0.3,0.9,0.3,1.4C206.7,71,206.6,71.4,206.4,71.8z"/>
	<path class="st2" d="M210.6,63.6c-0.3,0-0.5,0.1-0.7,0.3s-0.3,0.4-0.3,0.6c0,0.2,0.1,0.4,0.3,0.6s0.4,0.3,0.7,0.3
		c0.3,0,0.5-0.1,0.7-0.3s0.3-0.4,0.3-0.6c0-0.2-0.1-0.4-0.3-0.6S210.9,63.6,210.6,63.6z"/>
	<rect x="209.9" y="66.8" class="st2" width="1.3" height="7.4"/>
	<path class="st2" d="M217.8,66.7c-0.6,0-1.1,0.1-1.6,0.3s-0.8,0.5-1.1,0.9v-1.1h-1.3v7.4h1.3v-3.8c0-0.8,0.2-1.4,0.6-1.8
		s1-0.6,1.7-0.6c0.6,0,1.1,0.2,1.5,0.5c0.3,0.4,0.5,0.9,0.5,1.6v4.1h1.3v-4.3c0-1.1-0.3-1.9-0.8-2.4C219.5,67,218.7,66.7,217.8,66.7
		z"/>
	<path class="st2" d="M229.2,66.8v1.1c-0.3-0.4-0.7-0.7-1.2-0.9s-1-0.3-1.6-0.3c-0.7,0-1.4,0.1-1.9,0.4c-0.6,0.3-1,0.7-1.4,1.3
		c-0.3,0.5-0.5,1.2-0.5,1.9c0,0.7,0.2,1.3,0.5,1.9c0.3,0.5,0.8,1,1.4,1.3c0.6,0.3,1.2,0.5,1.9,0.5c0.5,0,1-0.1,1.5-0.3
		s0.9-0.5,1.2-0.9v0.6c0,0.8-0.2,1.5-0.6,1.9c-0.4,0.4-1.1,0.6-1.9,0.6c-0.5,0-1.1-0.1-1.6-0.3s-0.9-0.4-1.3-0.7l-0.6,1
		c0.4,0.4,0.9,0.6,1.5,0.8c0.6,0.2,1.3,0.3,2,0.3c1.3,0,2.2-0.3,2.9-0.9c0.6-0.6,1-1.6,1-2.9v-6.4H229.2z M228.9,71.5
		c-0.2,0.4-0.5,0.7-0.9,0.9c-0.4,0.2-0.8,0.3-1.3,0.3c-0.5,0-0.9-0.1-1.3-0.3c-0.4-0.2-0.7-0.5-0.9-0.9c-0.2-0.4-0.3-0.8-0.3-1.3
		c0-0.7,0.2-1.3,0.7-1.7c0.5-0.4,1.1-0.7,1.8-0.7c0.7,0,1.4,0.2,1.8,0.7c0.5,0.4,0.7,1,0.7,1.7C229.2,70.7,229.1,71.1,228.9,71.5z"
		/>
</g>
</svg>
